<?xml version="1.0" encoding="UTF-8"?>
<!DOCTYPE svg PUBLIC "-//W3C//DTD SVG 1.1//EN" "http://www.w3.org/Graphics/SVG/1.1/DTD/svg11.dtd">
<!-- Creator: CorelDRAW -->
<svg xmlns="http://www.w3.org/2000/svg" xml:space="preserve" width="2.66666in" height="2.66666in" version="1.1" style="shape-rendering:geometricPrecision; text-rendering:geometricPrecision; image-rendering:optimizeQuality; fill-rule:evenodd; clip-rule:evenodd"
viewBox="0 0 2667 2667"
 xmlns:xlink="http://www.w3.org/1999/xlink">
 <defs>
  <style type="text/css">
   <![CDATA[
    .fil0 {fill:#FF700D}
    .fil1 {fill:white}
   ]]>
  </style>
 </defs>
 <g id="Layer_x0020_1">
  <metadata id="CorelCorpID_0Corel-Layer"/>
  <circle class="fil0" cx="1333" cy="1333" r="1333"/>
  <path class="fil1" d="M1275 2102c-438,0 -795,-356 -795,-795 0,-438 357,-795 795,-795 439,0 796,357 796,795 0,173 -56,338 -158,475l-132 0c-12,-28 -29,-53 -49,-75l0 -140c0,-19 -3,-37 -9,-54 -34,-102 -149,-155 -250,-155l-2 0 -70 -56c75,-43 126,-123 126,-216 0,-137 -112,-248 -248,-248 -137,0 -248,111 -248,248 0,93 50,173 126,216l-71 56 -8 0c-102,0 -216,53 -250,155 -6,17 -9,35 -9,54l0 196c0,7 6,13 12,13l150 0 288 0c-18,37 -28,79 -28,123 0,79 33,150 85,202 -17,1 -34,1 -51,1zm249 53c-141,0 -256,-115 -256,-256 0,-141 115,-256 256,-256 106,0 202,67 239,165l324 0c7,0 13,3 18,8l74 74c10,10 10,26 0,36l-78 78c-5,5 -11,8 -18,8l-46 0c-8,0 -16,-4 -21,-11l-12 -17 -12 16c-5,7 -13,11 -21,11 0,0 0,0 0,0 -8,0 -16,-4 -21,-11l-13 -17 -15 20c-5,7 -13,10 -21,10 0,0 0,0 0,0 -8,0 -16,-3 -21,-10l-17 -23 -16 22c-4,6 -11,9 -19,10 -7,0 -15,-2 -20,-8l-30 -30 -9 0c-33,106 -133,181 -245,181zm-72 -179c21,0 41,-8 55,-22 15,-15 23,-34 23,-55 0,-21 -8,-41 -23,-55 -14,-15 -34,-23 -55,-23 -20,0 -40,8 -55,23 -14,14 -22,34 -22,55 0,21 8,40 22,55 15,14 35,22 55,22zm0 -130c14,0 28,6 38,15 9,10 15,24 15,38 0,14 -6,27 -15,37 -21,20 -55,20 -75,0 -10,-10 -15,-23 -15,-37 0,-14 5,-28 15,-38 10,-9 23,-15 37,-15zm-76 -532l67 54 -168 134 -164 -132 70 -56c30,13 63,20 98,20 34,0 67,-7 97,-20zm-97 -451c123,0 223,100 223,223 0,123 -100,223 -223,223 -123,0 -223,-100 -223,-223 0,-123 100,-223 223,-223zm428 820c-50,-42 -115,-67 -183,-67 -102,0 -191,54 -241,135l-290 0 0 -110c0,-7 -5,-13 -12,-13 -7,0 -13,6 -13,13l0 110 -124 0 0 -184c0,-14 2,-28 6,-41 27,-95 135,-143 228,-143l8 0 182 144c4,4 11,4 15,0l181 -144 2 0 0 0 1 0 6 0c92,0 200,48 228,143 4,13 6,27 6,41l0 116z"/>
 </g>
</svg>
