<svg width="24" height="24" viewBox="0 0 24 24" fill="none" xmlns="http://www.w3.org/2000/svg">
<path fill-rule="evenodd" clip-rule="evenodd" d="M17.25 22H4.25C3.85218 22 3.47076 21.842 3.18945 21.5607C2.90815 21.2794 2.75 20.8978 2.75 20.5V3.5C2.75 3.10218 2.90815 2.72064 3.18945 2.43933C3.47076 2.15803 3.85218 2 4.25 2H17.25C17.6478 2 18.0292 2.15803 18.3105 2.43933C18.5919 2.72064 18.75 3.10218 18.75 3.5V6H17.25V3.5H4.25V20.5H17.25V18H18.75V20.5C18.75 20.8978 18.5919 21.2794 18.3105 21.5607C18.0292 21.842 17.6478 22 17.25 22ZM21.25 12.0015C21.2494 12.1998 21.1703 12.3899 21.03 12.53L17.141 16.419C17.0723 16.4927 16.9895 16.5518 16.8975 16.5928C16.8055 16.6338 16.7062 16.6558 16.6055 16.6576C16.5048 16.6594 16.4048 16.6409 16.3114 16.6031C16.218 16.5654 16.1332 16.5093 16.062 16.438C15.9907 16.3668 15.9346 16.282 15.8969 16.1886C15.8591 16.0952 15.8406 15.9952 15.8424 15.8945C15.8442 15.7938 15.8662 15.6945 15.9072 15.6025C15.9482 15.5105 16.0073 15.4277 16.081 15.359L18.69 12.75H9.05705C8.95396 12.7575 8.85041 12.7437 8.75289 12.7094C8.65537 12.6751 8.56596 12.6211 8.49024 12.5507C8.41453 12.4804 8.35414 12.3951 8.31285 12.3004C8.27156 12.2056 8.25024 12.1033 8.25024 12C8.25024 11.8966 8.27156 11.7943 8.31285 11.6996C8.35414 11.6048 8.41453 11.5196 8.49024 11.4492C8.56596 11.3788 8.65537 11.3248 8.75289 11.2905C8.85041 11.2562 8.95396 11.2424 9.05705 11.25H18.6899L16.081 8.64101C15.9403 8.50031 15.8613 8.30948 15.8613 8.11051C15.8613 7.91153 15.9403 7.7207 16.081 7.58001C16.2217 7.43931 16.4125 7.36027 16.6115 7.36027C16.8105 7.36027 17.0013 7.43931 17.142 7.58001L21.031 11.469C21.1006 11.5388 21.1558 11.6216 21.1933 11.7127C21.2307 11.8033 21.25 11.9004 21.25 11.9985C21.25 11.999 21.25 11.9995 21.2501 12C21.25 12.0005 21.25 12.001 21.25 12.0015Z" fill="#fa770f" id="id_101"></path>
</svg>