<?xml version="1.0" encoding="UTF-8" standalone="no"?> <svg id="Layer_1" data-name="Layer 1" xmlns="http://www.w3.org/2000/svg" xmlns:xlink="http://www.w3.org/1999/xlink" viewBox="0 0 48 48"><defs><style>.cls-1{fill:url(#radial-gradient);}.cls-2{fill:url(#linear-gradient);}.cls-3{fill:url(#linear-gradient-2);}.cls-4{fill:url(#linear-gradient-3);}.cls-5{fill:url(#linear-gradient-4);}.cls-6{fill:url(#linear-gradient-5);}</style><radialGradient id="radial-gradient" cx="20.643" cy="19.357" r="21.365" gradientUnits="userSpaceOnUse"><stop offset="0" stop-color="#fed200"/><stop offset="1" stop-color="#f59815"/></radialGradient><linearGradient id="linear-gradient" x1="24" y1="39.955" x2="24" y2="45.742" xlink:href="#radial-gradient"/><linearGradient id="linear-gradient-2" x1="8.751" y1="28.692" x2="3.367" y2="30.942" xlink:href="#radial-gradient"/><linearGradient id="linear-gradient-3" x1="39.125" y1="28.676" x2="44.675" y2="30.928" xlink:href="#radial-gradient"/><linearGradient id="linear-gradient-4" x1="33.352" y1="11.077" x2="36.808" y2="6.416" xlink:href="#radial-gradient"/><linearGradient id="linear-gradient-5" x1="14.616" y1="11.007" x2="11" y2="6.185" xlink:href="#radial-gradient"/></defs><path class="cls-1" d="M41.864,18.729A2.716,2.716,0,0,0,39.837,16.9l-8.89-1.925L26.5,7.331a2.89,2.89,0,0,0-4.994,0l-4.45,7.641L8.164,16.9A2.743,2.743,0,0,0,6.7,21.405l6.06,6.783-.917,9.048a2.734,2.734,0,0,0,3.835,2.785L24,36.354l8.323,3.667a2.742,2.742,0,0,0,3.835-2.785l-.917-9.048,6.06-6.783A2.718,2.718,0,0,0,41.864,18.729Z"/><path class="cls-2" d="M24,46a1,1,0,0,1-1-1V41a1,1,0,0,1,2,0v4A1,1,0,0,1,24,46Z"/><path class="cls-3" d="M4.028,31.489a1,1,0,0,1-.309-1.951l3.8-1.236a1,1,0,0,1,.618,1.9l-3.8,1.236A.982.982,0,0,1,4.028,31.489Z"/><path class="cls-4" d="M43.972,31.489a.982.982,0,0,1-.309-.049l-3.8-1.236a1,1,0,1,1,.618-1.9l3.8,1.236a1,1,0,0,1-.309,1.951Z"/><path class="cls-5" d="M33.991,11.247a1,1,0,0,1-.808-1.588l2.351-3.236A1,1,0,1,1,37.152,7.6L34.8,10.834A1,1,0,0,1,33.991,11.247Z"/><path class="cls-6" d="M14.009,11.247a1,1,0,0,1-.81-.413L10.848,7.6a1,1,0,1,1,1.618-1.176l2.351,3.236a1,1,0,0,1-.808,1.588Z"/></svg>